<mxfile host="65bd71144e">
    <diagram id="AD3n9gmXkhZPq2PehrIf" name="Page-1">
        <mxGraphModel dx="1484" dy="1162" grid="1" gridSize="10" guides="1" tooltips="1" connect="1" arrows="1" fold="1" page="1" pageScale="1" pageWidth="827" pageHeight="1169" math="0" shadow="0">
            <root>
                <mxCell id="0"/>
                <mxCell id="1" parent="0"/>
                <mxCell id="2" value="base.blade.php&lt;div&gt;recapcha script in the head tag&lt;/div&gt;" style="rounded=0;whiteSpace=wrap;html=1;" vertex="1" parent="1">
                    <mxGeometry x="30" y="90" width="120" height="60" as="geometry"/>
                </mxCell>
                <mxCell id="4" value="" style="shape=link;html=1;" edge="1" parent="1" target="5">
                    <mxGeometry width="100" relative="1" as="geometry">
                        <mxPoint x="150" y="119.5" as="sourcePoint"/>
                        <mxPoint x="250" y="119.5" as="targetPoint"/>
                    </mxGeometry>
                </mxCell>
                <mxCell id="5" value="login.blade.php&lt;div&gt;div tag with the data-siteKey. This shows the box&lt;/div&gt;" style="rounded=0;whiteSpace=wrap;html=1;" vertex="1" parent="1">
                    <mxGeometry x="190" y="89.5" width="120" height="60" as="geometry"/>
                </mxCell>
                <mxCell id="6" value="THERE IS NOTHING TO PROCESS IN THE JAVASCRIPT FILE" style="text;html=1;whiteSpace=wrap;overflow=hidden;rounded=0;" vertex="1" parent="1">
                    <mxGeometry x="100" y="170" width="180" height="60" as="geometry"/>
                </mxCell>
            </root>
        </mxGraphModel>
    </diagram>
</mxfile>